Coordinates
version=1
nRows=10
nColumns=34
inDegrees=yes

Units are S.I. units (second, meters, Newtons, ...)
If the header above contains a line with 'inDegrees', this indicates whether rotational values are in degrees (yes) or radians (no).

endheader
time	pelvis_tilt	pelvis_list	pelvis_rotation	pelvis_tx	pelvis_ty	pelvis_tz	hip_flexion_r	hip_adduction_r	hip_rotation_r	knee_angle_r	ankle_angle_r	subtalar_angle_r	mtp_angle_r	hip_flexion_l	hip_adduction_l	hip_rotation_l	knee_angle_l	ankle_angle_l	subtalar_angle_l	mtp_angle_l	lumbar_extension	lumbar_bending	lumbar_rotation	arm_flex_r	arm_add_r	arm_rot_r	elbow_flex_r	pro_sup_r	arm_flex_l	arm_add_l	arm_rot_l	elbow_flex_l	pro_sup_l
      0.93333330	      0.21689010	     -1.17760337	     -0.67620344	      1.62101871	      0.87221490	     -0.07965935	     -3.30573267	     -1.30034430	     -4.10029148	      1.21410035	      5.38063270	    -10.75425923	      0.00000000	     -5.03873056	     -4.02187023	      1.18899580	      0.98736010	      8.23444538	     -3.70891665	      0.00000000	     -7.02044868	      1.74330407	     -0.80200636	      9.83828293	     -9.28674194	     39.96728900	     75.40402506	     86.65881406	     10.77996385	     -6.07889114	     35.41264477	     53.95799858	     80.86474710
      0.95000000	      0.21119071	     -1.19125154	     -0.68148315	      1.62113690	      0.87217453	     -0.07984509	     -3.31041689	     -1.31248616	     -4.10082610	      1.21647161	      5.38074162	    -10.75387828	      0.00000000	     -5.04260404	     -4.02494350	      1.18651708	      0.98388685	      8.23602637	     -3.71207384	      0.00000000	     -7.01681319	      1.74686450	     -0.80411879	      9.84166785	     -9.28474552	     39.96473878	     75.40549425	     86.65734586	     10.77873728	     -6.07428926	     35.41410642	     53.95782902	     80.86572681
      0.96666670	      0.21078939	     -1.19220317	     -0.68247302	      1.62120317	      0.87251029	     -0.07986819	     -3.31047609	     -1.31388966	     -4.10080805	      1.21657888	      5.38085020	    -10.75380113	      0.00000000	     -5.04255923	     -4.02578290	      1.18612869	      0.98265126	      8.23645627	     -3.71271280	      0.00000000	     -7.01585310	      1.74782743	     -0.80450211	      9.84244027	     -9.28443414	     39.96418375	     75.40583769	     86.65705722	     10.77851920	     -6.07333732	     35.41439183	     53.95787111	     80.86591956
      0.98333330	      0.20877803	     -1.19427572	     -0.68356672	      1.62134904	      0.87346901	     -0.07991612	     -3.31078378	     -1.31699972	     -4.10063827	      1.21674098	      5.38106468	    -10.75377766	      0.00000000	     -5.04174129	     -4.02739399	      1.18583972	      0.98100882	      8.23697049	     -3.71338672	      0.00000000	     -7.01470237	      1.74881112	     -0.80477106	      9.84331991	     -9.28405524	     39.96360441	     75.40624120	     86.65676799	     10.77837416	     -6.07246665	     35.41463982	     53.95798148	     80.86611073
      1.00000000	      0.19388121	     -1.21075557	     -0.75322453	      1.62170190	      0.87446887	     -0.08018642	     -3.30595190	     -1.35478634	     -4.04788649	      1.21212579	      5.37069046	    -10.68763723	      0.00000000	     -5.14575967	     -4.00078188	      1.13702254	      0.80599060	      8.27479837	     -3.79131852	      0.00000000	     -6.90665701	      1.95922256	     -0.85486449	      9.91429168	     -9.27244856	     39.87610595	     75.41892108	     86.60848154	     10.68820039	     -5.92864478	     35.46589050	     53.94886142	     80.89833002
      1.01666670	      0.19208389	     -1.21541464	     -0.75255370	      1.62172618	      0.87500321	     -0.08008704	     -3.30544118	     -1.35635145	     -4.04739939	      1.21169930	      5.37061865	    -10.68712546	      0.00000000	     -5.14620298	     -4.00023141	      1.13695606	      0.80572922	      8.27445931	     -3.79157976	      0.00000000	     -6.90677313	      1.95888358	     -0.85458826	      9.91404716	     -9.27247926	     39.87583021	     75.41873903	     86.60813872	     10.68738604	     -5.92911346	     35.46588255	     53.94836574	     80.89853673
      1.03333330	      0.19323966	     -1.21874652	     -0.75138360	      1.62165318	      0.87445773	     -0.08000886	     -3.30427242	     -1.35676176	     -4.04687663	      1.21087473	      5.37025301	    -10.68637682	      0.00000000	     -5.14783675	     -3.99893672	      1.13675172	      0.80606073	      8.27393288	     -3.79166977	      0.00000000	     -6.90739075	      1.95871275	     -0.85439188	      9.91356777	     -9.27266569	     39.87564311	     75.41832033	     86.60787221	     10.68649137	     -5.92951441	     35.46591673	     53.94783380	     80.89869844
      1.05000000	      0.19769416	     -1.22039273	     -0.74972343	      1.62159203	      0.87317331	     -0.07999842	     -3.30152868	     -1.35620841	     -4.04599021	      1.20920122	      5.36954745	    -10.68511169	      0.00000000	     -5.15016221	     -3.99840227	      1.13626019	      0.80651364	      8.27313534	     -3.79184198	      0.00000000	     -6.90862689	      1.95850562	     -0.85410205	      9.91289456	     -9.27297866	     39.87536594	     75.41760119	     86.60750959	     10.68525833	     -5.93010683	     35.46595757	     53.94705041	     80.89891696
      1.06666670	      0.20166315	     -1.22060127	     -0.74795305	      1.62162035	      0.87221319	     -0.08003543	     -3.29858682	     -1.35641721	     -4.04495180	      1.20742209	      5.36887793	    -10.68384966	      0.00000000	     -5.15202326	     -3.99982286	      1.13558297	      0.80664871	      8.27250785	     -3.79222649	      0.00000000	     -6.90980886	      1.95836096	     -0.85378573	      9.91244355	     -9.27327707	     39.87502098	     75.41694208	     86.60714310	     10.68423713	     -5.93068477	     35.46595966	     53.94634319	     80.89913542
      1.08333330	      0.20421257	     -1.22192256	     -0.74558032	      1.62182173	      0.87216582	     -0.07996303	     -3.29548577	     -1.35886709	     -4.04383992	      1.20568048	      5.36838788	    -10.68281090	      0.00000000	     -5.15254164	     -4.00221302	      1.13487829	      0.80619581	      8.27217626	     -3.79280699	      0.00000000	     -6.91058556	      1.95848132	     -0.85352899	      9.91237797	     -9.27357508	     39.87460909	     75.41651441	     86.60680758	     10.68365209	     -5.93105663	     35.46592283	     53.94587626	     80.89933308
